<?xml version="1.0" encoding="utf-8"?>
<!-- Generator: Adobe Illustrator 24.0.1, SVG Export Plug-In . SVG Version: 6.00 Build 0)  -->
<svg version="1.0" id="Layer_1" xmlns="http://www.w3.org/2000/svg" xmlns:xlink="http://www.w3.org/1999/xlink" x="0px" y="0px"
	 viewBox="0 0 586.68 279.5" style="enable-background:new 0 0 586.68 279.5;" xml:space="preserve">
<style type="text/css">
	.st0{fill:#FFFFFF;}
	.st1{fill:#D0FFF1;stroke:#000000;stroke-miterlimit:10;}
	.st2{fill:none;stroke:#FF0000;stroke-miterlimit:10;}
	.st3{fill:#FF0000;}
	.st4{fill:#FFFFFF;stroke:#000000;stroke-miterlimit:10;}
	.st5{fill:none;stroke:#00FF00;stroke-miterlimit:10;}
	.st6{fill:#00FF00;}
	.st7{fill:#FFFFFF;stroke:#00FF00;stroke-miterlimit:10;}
	.st8{fill:none;}
	.st9{font-family:'MyriadPro-Regular';}
	.st10{font-size:12px;}
	.st11{fill:none;stroke:#000000;stroke-miterlimit:10;}
	.st12{opacity:0.5;}
	.st13{fill:none;stroke:#000000;stroke-miterlimit:10;stroke-dasharray:5,3;}
	.st14{fill:none;stroke:#000000;stroke-miterlimit:10;stroke-dasharray:4.9557,2.9734;}
	.st15{fill:none;stroke:#E70006;stroke-miterlimit:10;}
	.st16{fill:#E70006;}
	.st17{fill:none;stroke:#00AF21;stroke-miterlimit:10;}
	.st18{fill:#00AF21;}
	.st19{font-size:7.6419px;}
	.st20{font-size:10px;}
	.st21{fill:#D0FFF1;}
</style>
<g>
	<rect x="0.18" y="0" class="st0" width="586" height="279"/>
	<path d="M585.68,0.5v278h-585V0.5H585.68 M586.68-0.5h-587v280h587V-0.5L586.68-0.5z"/>
</g>
<path class="st1" d="M84.68,56c0,11.32-9.18,20.5-20.5,20.5s-20.5-9.18-20.5-20.5s9.18-20.5,20.5-20.5c9.37,0,15.44,6.99,15.88,7.53
	C81.12,44.33,84.68,49.25,84.68,56z"/>
<g>
	<g>
		<line class="st2" x1="79.09" y1="70.06" x2="87.84" y2="78.8"/>
		<g>
			<path class="st3" d="M92.11,83.07c-2.75-1.26-6.52-2.48-9.41-2.68l4.58-2.15l2.15-4.58C89.62,76.56,90.84,80.32,92.11,83.07z"/>
		</g>
	</g>
</g>
<path class="st4" d="M88.18,77"/>
<circle class="st1" cx="106.18" cy="97" r="20.5"/>
<g>
	<g>
		<line class="st2" x1="121.09" y1="111.06" x2="129.84" y2="119.8"/>
		<g>
			<path class="st3" d="M134.11,124.07c-2.75-1.26-6.52-2.48-9.41-2.68l4.58-2.15l2.15-4.58
				C131.62,117.56,132.84,121.32,134.11,124.07z"/>
		</g>
	</g>
</g>
<path class="st4" d="M130.18,118"/>
<circle class="st1" cx="148.18" cy="138" r="20.5"/>
<g>
	<g>
		<line class="st2" x1="163.09" y1="152.06" x2="171.84" y2="160.8"/>
		<g>
			<path class="st3" d="M176.11,165.07c-2.75-1.26-6.52-2.48-9.41-2.68l4.58-2.15l2.15-4.58
				C173.62,158.56,174.84,162.32,176.11,165.07z"/>
		</g>
	</g>
</g>
<path class="st4" d="M172.18,159"/>
<circle class="st1" cx="191.18" cy="180" r="20.5"/>
<g>
	<g>
		<line class="st2" x1="206.68" y1="192.5" x2="215.7" y2="200.95"/>
		<g>
			<path class="st3" d="M220.11,205.07c-2.79-1.17-6.59-2.27-9.49-2.37l4.51-2.3l1.99-4.65
				C217.41,198.64,218.76,202.36,220.11,205.07z"/>
		</g>
	</g>
</g>
<path class="st4" d="M214.18,200"/>
<circle class="st1" cx="233.18" cy="219" r="20.5"/>
<path class="st4" d="M275.16,186.27"/>
<circle class="st1" cx="278.18" cy="180" r="20.5"/>
<g>
	<line class="st0" x1="292.24" y1="165.09" x2="305.25" y2="152.07"/>
	<g>
		<line class="st5" x1="292.24" y1="165.09" x2="300.99" y2="156.34"/>
		<g>
			<path class="st6" d="M305.25,152.07c-1.26,2.75-2.48,6.52-2.68,9.41l-2.15-4.58l-4.58-2.15
				C298.74,154.56,302.5,153.34,305.25,152.07z"/>
		</g>
	</g>
</g>
<path class="st7" d="M295.18,156"/>
<circle class="st1" cx="319.18" cy="138" r="20.5"/>
<g>
	<line class="st0" x1="333.24" y1="123.09" x2="346.25" y2="110.07"/>
	<g>
		<line class="st5" x1="333.24" y1="123.09" x2="341.99" y2="114.34"/>
		<g>
			<path class="st6" d="M346.25,110.07c-1.26,2.75-2.48,6.52-2.68,9.41l-2.15-4.58l-4.58-2.15
				C339.74,112.56,343.5,111.34,346.25,110.07z"/>
		</g>
	</g>
</g>
<path class="st7" d="M336.18,114"/>
<circle class="st1" cx="360.18" cy="96" r="20.5"/>
<g>
	<line class="st0" x1="374.24" y1="81.09" x2="387.25" y2="68.07"/>
	<g>
		<line class="st5" x1="374.24" y1="81.09" x2="382.99" y2="72.34"/>
		<g>
			<path class="st6" d="M387.25,68.07c-1.26,2.75-2.48,6.52-2.68,9.41l-2.15-4.58l-4.58-2.15C380.74,70.56,384.5,69.34,387.25,68.07
				z"/>
		</g>
	</g>
</g>
<path class="st7" d="M377.18,72"/>
<circle class="st1" cx="401.18" cy="54" r="20.5"/>
<g>
	<line class="st0" x1="249.24" y1="206.09" x2="262.25" y2="193.07"/>
	<g>
		<line class="st5" x1="249.24" y1="206.09" x2="257.99" y2="197.34"/>
		<g>
			<path class="st6" d="M262.25,193.07c-1.26,2.75-2.48,6.52-2.68,9.41l-2.15-4.58l-4.58-2.15
				C255.74,195.56,259.5,194.34,262.25,193.07z"/>
		</g>
	</g>
</g>
<path class="st4" d="M236.16,144.27"/>
<circle class="st1" cx="235.18" cy="138" r="20.5"/>
<g>
	<line class="st0" x1="249.24" y1="123.09" x2="262.25" y2="110.07"/>
	<g>
		<line class="st5" x1="249.24" y1="123.09" x2="257.99" y2="114.34"/>
		<g>
			<path class="st6" d="M262.25,110.07c-1.26,2.75-2.48,6.52-2.68,9.41l-2.15-4.58l-4.58-2.15
				C255.74,112.56,259.5,111.34,262.25,110.07z"/>
		</g>
	</g>
</g>
<path class="st4" d="M256.18,114"/>
<circle class="st1" cx="276.18" cy="96" r="20.5"/>
<g>
	<line class="st0" x1="290.24" y1="81.09" x2="303.25" y2="68.07"/>
	<g>
		<line class="st5" x1="290.24" y1="81.09" x2="298.99" y2="72.34"/>
		<g>
			<path class="st6" d="M303.25,68.07c-1.26,2.75-2.48,6.52-2.68,9.41l-2.15-4.58l-4.58-2.15C296.74,70.56,300.5,69.34,303.25,68.07
				z"/>
		</g>
	</g>
</g>
<path class="st7" d="M297.18,72"/>
<g>
	<line class="st0" x1="206.24" y1="164.09" x2="219.25" y2="151.07"/>
	<g>
		<line class="st5" x1="206.24" y1="164.09" x2="214.99" y2="155.34"/>
		<g>
			<path class="st6" d="M219.25,151.07c-1.26,2.75-2.48,6.52-2.68,9.41l-2.15-4.58l-4.58-2.15
				C212.74,153.56,216.5,152.34,219.25,151.07z"/>
		</g>
	</g>
</g>
<path class="st4" d="M192.16,102.27"/>
<circle class="st1" cx="191.18" cy="96" r="20.5"/>
<g>
	<line class="st0" x1="205.24" y1="81.09" x2="218.25" y2="68.07"/>
	<g>
		<line class="st5" x1="205.24" y1="81.09" x2="213.99" y2="72.34"/>
		<g>
			<path class="st6" d="M218.25,68.07c-1.26,2.75-2.48,6.52-2.68,9.41l-2.15-4.58l-4.58-2.15C211.74,70.56,215.5,69.34,218.25,68.07
				z"/>
		</g>
	</g>
</g>
<path class="st4" d="M212.18,72"/>
<g>
	<line class="st0" x1="162.24" y1="122.09" x2="175.25" y2="109.07"/>
	<g>
		<line class="st5" x1="162.24" y1="122.09" x2="170.99" y2="113.34"/>
		<g>
			<path class="st6" d="M175.25,109.07c-1.26,2.75-2.48,6.52-2.68,9.41l-2.15-4.58l-4.58-2.15
				C168.74,111.56,172.5,110.34,175.25,109.07z"/>
		</g>
	</g>
</g>
<path class="st4" d="M150.16,61.27"/>
<circle class="st1" cx="149.18" cy="55" r="20.5"/>
<g>
	<line class="st0" x1="120.24" y1="81.09" x2="133.25" y2="68.07"/>
	<g>
		<line class="st5" x1="120.24" y1="81.09" x2="128.99" y2="72.34"/>
		<g>
			<path class="st6" d="M133.25,68.07c-1.26,2.75-2.48,6.52-2.68,9.41l-2.15-4.58l-4.58-2.15C126.74,70.56,130.5,69.34,133.25,68.07
				z"/>
		</g>
	</g>
</g>
<circle class="st1" cx="317.18" cy="54" r="20.5"/>
<path class="st1" d="M232.18,33.5c5.59-0.14,12.01,3.06,15.62,7.06c0.07,0.08,0.09,0.1,0.09,0.1c0.14,0.16,0.11,0.16,0.29,0.34
	c0,0,0,0,0,0c0.02,0.02,4.79,5.32,4.5,13c-0.35,9.31-8.15,20.5-20.5,20.5c-11.32,0-20.5-9.18-20.5-20.5
	C211.68,41.9,222.42,33.75,232.18,33.5z"/>
<rect x="7" y="16.33" class="st8" width="33.68" height="26.17"/>
<text transform="matrix(1 0 0 1 7.0002 24.8496)"><tspan x="0" y="0" class="st9 st10">input </tspan><tspan x="0" y="12" class="st9 st10">image</tspan></text>
<g>
	<g>
		<line class="st11" x1="39.88" y1="30.7" x2="46.22" y2="37.04"/>
		<g>
			<path d="M50.48,41.3c-2.75-1.26-6.52-2.48-9.41-2.68l4.58-2.15l2.15-4.58C48,34.79,49.22,38.55,50.48,41.3z"/>
		</g>
	</g>
</g>
<rect x="502.8" y="43.78" class="st8" width="38.88" height="24.72"/>
<text transform="matrix(1 0 0 1 502.8047 52.2991)"><tspan x="0" y="0" class="st9 st10">output</tspan><tspan x="0" y="11" class="st9 st10">mask</tspan></text>
<g>
	<line x1="84.18" y1="56" x2="128.78" y2="56"/>
	<g>
		<line class="st11" x1="84.18" y1="56" x2="125.22" y2="56"/>
		<g>
			<path d="M124.82,56c-1.04-1.04-1.54-3.11-1.58-4.54c1.43,1.92,3.29,3.6,5.55,4.54c-2.25,0.9-4.03,2.68-5.55,4.54
				C123.36,59.01,123.73,57.15,124.82,56z"/>
		</g>
	</g>
</g>
<g>
	<line x1="169.18" y1="55" x2="211.18" y2="55"/>
	<g>
		<line class="st11" x1="169.18" y1="55" x2="207.62" y2="55"/>
		<g>
			<path d="M207.22,55c-1.04-1.04-1.54-3.11-1.58-4.54c1.43,1.92,3.29,3.6,5.55,4.54c-2.25,0.9-4.03,2.68-5.55,4.54
				C205.76,58.01,206.13,56.15,207.22,55z"/>
		</g>
	</g>
</g>
<g>
	<line x1="252.18" y1="54" x2="296.18" y2="54"/>
	<g>
		<line class="st11" x1="252.18" y1="54" x2="292.62" y2="54"/>
		<g>
			<path d="M292.22,54c-1.04-1.04-1.54-3.11-1.58-4.54c1.43,1.92,3.29,3.6,5.55,4.54c-2.25,0.9-4.03,2.68-5.55,4.54
				C290.76,57.01,291.13,55.15,292.22,54z"/>
		</g>
	</g>
</g>
<g>
	<line x1="337.18" y1="54" x2="380.18" y2="54"/>
	<g>
		<line class="st11" x1="337.18" y1="54" x2="376.62" y2="54"/>
		<g>
			<path d="M376.22,54c-1.04-1.04-1.54-3.11-1.58-4.54c1.43,1.92,3.29,3.6,5.55,4.54c-2.25,0.9-4.03,2.68-5.55,4.54
				C374.76,57.01,375.13,55.15,376.22,54z"/>
		</g>
	</g>
</g>
<path class="st4" d="M107.18,32"/>
<g class="st12">
	<g>
		<path class="st13" d="M82.18,44.5c9.5-4.37,20.66-8.47,33.37-11.37c41.18-9.37,76.78-1.09,97.77,6.06"/>
		<g>
			<path d="M212.92,39.11c-0.66-1.32-0.47-3.44-0.06-4.81c0.75,2.28,1.98,4.46,3.81,6.07c-2.42,0.14-4.68,1.26-6.7,2.55
				C210.58,41.5,211.53,39.85,212.92,39.11z"/>
		</g>
	</g>
</g>
<g class="st12">
	<g>
		<path class="st13" d="M77.18,39.48c10.52-5,21.98-9.53,34.38-13.27c76.67-23.08,147.29-2.82,186.82,12.96"/>
		<g>
			<path d="M297.98,39.08c-0.6-1.35-0.33-3.46,0.15-4.81c0.65,2.31,1.79,4.54,3.55,6.23c-2.43,0.04-4.72,1.06-6.81,2.26
				C295.54,41.37,296.56,39.76,297.98,39.08z"/>
		</g>
	</g>
</g>
<g class="st12">
	<g>
		<path class="st11" d="M383.36,37.22c-0.76-0.29-1.54-0.59-2.33-0.89"/>
		<path class="st14" d="M378.24,35.29c-47.25-17.5-145.4-46.11-251.68-20.77c-19.92,4.75-37.85,10.85-53.85,17.58l-2.49,1.29"/>
		<line class="st11" x1="68.9" y1="34.09" x2="66.68" y2="35.24"/>
		<g>
			<path d="M382.96,37.13c-1.34,0.62-2.52,2.39-3.06,3.72c2.01-1.31,4.34-2.24,6.78-2.35c-1.8-1.62-2.86-3.91-3.64-6.18
				C382.63,33.8,382.34,35.68,382.96,37.13z"/>
		</g>
	</g>
</g>
<g>
	<line x1="126.18" y1="97" x2="170.68" y2="97"/>
	<g>
		<line class="st11" x1="126.18" y1="97" x2="167.12" y2="97"/>
		<g>
			<path d="M166.72,97c-1.04-1.04-1.54-3.11-1.58-4.54c1.43,1.92,3.29,3.6,5.55,4.54c-2.25,0.9-4.03,2.68-5.55,4.54
				C165.26,100.01,165.63,98.15,166.72,97z"/>
		</g>
	</g>
</g>
<g>
	<line x1="211.18" y1="96" x2="255.75" y2="96"/>
	<g>
		<line class="st11" x1="211.18" y1="96" x2="252.19" y2="96"/>
		<g>
			<path d="M251.78,96c-1.04-1.04-1.54-3.11-1.58-4.54c1.43,1.92,3.29,3.6,5.55,4.54c-2.25,0.9-4.03,2.68-5.55,4.54
				C250.32,99.01,250.7,97.15,251.78,96z"/>
		</g>
	</g>
</g>
<g>
	<line x1="296.18" y1="96" x2="339.18" y2="96"/>
	<g>
		<line class="st11" x1="296.18" y1="96" x2="335.62" y2="96"/>
		<g>
			<path d="M335.22,96c-1.04-1.04-1.54-3.11-1.58-4.54c1.43,1.92,3.29,3.6,5.55,4.54c-2.25,0.9-4.03,2.68-5.55,4.54
				C333.76,99.01,334.13,97.15,335.22,96z"/>
		</g>
	</g>
</g>
<g>
	<line x1="168.18" y1="138" x2="214.68" y2="138"/>
	<g>
		<line class="st11" x1="168.18" y1="138" x2="211.12" y2="138"/>
		<g>
			<path d="M210.72,138c-1.04-1.04-1.54-3.11-1.58-4.54c1.43,1.92,3.29,3.6,5.55,4.54c-2.25,0.9-4.03,2.68-5.55,4.54
				C209.26,141.01,209.63,139.15,210.72,138z"/>
		</g>
	</g>
</g>
<g>
	<line x1="255.18" y1="138" x2="298.68" y2="138"/>
	<g>
		<line class="st11" x1="255.18" y1="138" x2="295.12" y2="138"/>
		<g>
			<path d="M294.72,138c-1.04-1.04-1.54-3.11-1.58-4.54c1.43,1.92,3.29,3.6,5.55,4.54c-2.25,0.9-4.03,2.68-5.55,4.54
				C293.26,141.01,293.63,139.15,294.72,138z"/>
		</g>
	</g>
</g>
<path class="st11" d="M211.47,177.06"/>
<g>
	<line x1="211.18" y1="180" x2="257.18" y2="180"/>
	<g>
		<line class="st11" x1="211.18" y1="180" x2="253.62" y2="180"/>
		<g>
			<path d="M253.22,180c-1.04-1.04-1.54-3.11-1.58-4.54c1.43,1.92,3.29,3.6,5.55,4.54c-2.25,0.9-4.03,2.68-5.55,4.54
				C251.76,183.01,252.13,181.15,253.22,180z"/>
		</g>
	</g>
</g>
<g class="st12">
	<g>
		<path class="st13" d="M127.18,91.5c11.04-3.06,23.42-5.71,37-7.4c35.36-4.39,66.02-0.66,89.03,4.48"/>
		<g>
			<path d="M252.81,88.54c-0.8-1.24-0.84-3.37-0.57-4.78c0.99,2.19,2.45,4.23,4.45,5.63c-2.39,0.4-4.51,1.76-6.39,3.25
				C250.74,91.17,251.5,89.43,252.81,88.54z"/>
		</g>
	</g>
</g>
<g class="st12">
	<g>
		<path class="st13" d="M125.18,85.5c18.14-5.56,38.89-10.43,62-13.41c62.26-8.01,115.28,1.18,152.08,11.41"/>
		<g>
			<path d="M338.85,83.44c-0.74-1.28-0.69-3.4-0.36-4.8c0.89,2.23,2.25,4.33,4.18,5.82c-2.41,0.29-4.59,1.55-6.53,2.96
				C336.66,85.97,337.51,84.27,338.85,83.44z"/>
		</g>
	</g>
</g>
<g class="st12">
	<g>
		<path class="st13" d="M168.18,130.32c11.55-1.43,23.64-2.55,36.23-3.25c33.93-1.89,65.07-0.4,92.74,2.83"/>
		<g>
			<path d="M296.74,129.91c-0.93-1.15-1.22-3.25-1.11-4.68c1.23,2.06,2.91,3.92,5.05,5.09c-2.33,0.67-4.28,2.26-5.98,3.95
				C294.98,132.76,295.54,130.94,296.74,129.91z"/>
		</g>
	</g>
</g>
<g class="st12">
	<g>
		<path class="st13" d="M169.18,49.5c10.7-5.86,26.38-12.68,46.18-15.59c35.62-5.22,64.45,5.2,79.11,11.98"/>
		<g>
			<path d="M294.09,45.75c-0.51-1.39-0.09-3.47,0.48-4.79c0.49,2.35,1.47,4.66,3.11,6.46c-2.42-0.13-4.79,0.73-6.95,1.78
				C291.49,47.86,292.62,46.33,294.09,45.75z"/>
		</g>
	</g>
</g>
<g class="st12">
	<g>
		<path class="st13" d="M158.68,37.13c10.62-5.84,26.39-13.18,46.49-17.9c31.45-7.38,56.46-4.33,81.36-1.05
			c23.02,3.03,55.55,9.57,92.87,24.95"/>
		<g>
			<path d="M379,43.03c-0.58-1.36-0.28-3.46,0.22-4.81c0.62,2.32,1.72,4.57,3.46,6.28c-2.43,0-4.74,0.99-6.84,2.16
				C376.53,45.28,377.57,43.69,379,43.03z"/>
		</g>
	</g>
</g>
<g class="st12">
	<g>
		<path class="st13" d="M211.18,90.18c12.09-3.54,25.76-6.46,40.79-7.93c33.39-3.26,62.23,1.73,84.3,8.22"/>
		<g>
			<path d="M335.87,90.4c-0.71-1.29-0.62-3.42-0.26-4.81c0.84,2.25,2.16,4.38,4.07,5.91c-2.41,0.24-4.62,1.46-6.59,2.82
				C333.63,92.88,334.51,91.2,335.87,90.4z"/>
		</g>
	</g>
</g>
<g>
	<g>
		<line class="st15" x1="25.68" y1="205.5" x2="36" y2="205.63"/>
		<g>
			<path class="st16" d="M42.03,205.71c-2.85,1.02-6.4,2.77-8.61,4.65l1.78-4.73l-1.66-4.78C35.71,202.78,39.21,204.62,42.03,205.71
				z"/>
		</g>
	</g>
</g>
<rect x="42.17" y="200.67" class="st8" width="72.51" height="14"/>
<text transform="matrix(1 0 0 1 45.2808 209.1936)" class="st9 st10">Downsample</text>
<g>
	<g>
		<line class="st17" x1="27.68" y1="223.5" x2="36.81" y2="223.53"/>
		<g>
			<path class="st18" d="M42.85,223.55c-2.84,1.04-6.37,2.83-8.56,4.73l1.74-4.75l-1.7-4.76C36.49,220.68,40.01,222.49,42.85,223.55
				z"/>
		</g>
	</g>
</g>
<rect x="35.17" y="218.67" class="st8" width="72.51" height="14"/>
<text transform="matrix(1 0 0 1 46.02 227.1935)" class="st9 st10">Upsample</text>
<g class="st12">
	<g>
		<line class="st13" x1="26.68" y1="189" x2="39.12" y2="189"/>
		<g>
			<path d="M38.72,189c-1.04-1.04-1.54-3.11-1.58-4.54c1.43,1.92,3.29,3.6,5.55,4.54c-2.25,0.9-4.03,2.68-5.55,4.54
				C37.26,192.01,37.63,190.15,38.72,189z"/>
		</g>
	</g>
</g>
<rect x="44.29" y="183.61" class="st8" width="84.39" height="14"/>
<text transform="matrix(1 0 0 1 45.4829 192.1291)" class="st9 st10">Skip Connection</text>
<text transform="matrix(1 0 0 1 137.5578 47.9287)"><tspan x="0" y="0" class="st9 st19">Shared </tspan><tspan x="0.6" y="9.17" class="st9 st19">Atrous </tspan><tspan x="-2.08" y="18.34" class="st9 st19">ResBlock</tspan></text>
<text transform="matrix(1 0 0 1 52.7187 49.4451)"><tspan x="0" y="0" class="st9 st19">Shared </tspan><tspan x="0.6" y="9.17" class="st9 st19">Atrous </tspan><tspan x="-2.08" y="18.34" class="st9 st19">ResBlock</tspan></text>
<text transform="matrix(1 0 0 1 94.7187 89.4451)"><tspan x="0" y="0" class="st9 st19">Shared </tspan><tspan x="0.6" y="9.17" class="st9 st19">Atrous </tspan><tspan x="-2.08" y="18.34" class="st9 st19">ResBlock</tspan></text>
<text transform="matrix(1 0 0 1 136.7187 130.4451)"><tspan x="0" y="0" class="st9 st19">Shared </tspan><tspan x="0.6" y="9.17" class="st9 st19">Atrous </tspan><tspan x="-2.08" y="18.34" class="st9 st19">ResBlock</tspan></text>
<text transform="matrix(1 0 0 1 179.7187 172.4451)"><tspan x="0" y="0" class="st9 st19">Shared </tspan><tspan x="0.6" y="9.17" class="st9 st19">Atrous </tspan><tspan x="-2.08" y="18.34" class="st9 st19">ResBlock</tspan></text>
<text transform="matrix(1 0 0 1 220.7187 212.4451)"><tspan x="0" y="0" class="st9 st19">Shared </tspan><tspan x="0.6" y="9.17" class="st9 st19">Atrous </tspan><tspan x="-2.08" y="18.34" class="st9 st19">ResBlock</tspan></text>
<text transform="matrix(1 0 0 1 179.7187 89.4451)"><tspan x="0" y="0" class="st9 st19">Shared </tspan><tspan x="0.6" y="9.17" class="st9 st19">Atrous </tspan><tspan x="-2.08" y="18.34" class="st9 st19">ResBlock</tspan></text>
<text transform="matrix(1 0 0 1 223.7187 130.4451)"><tspan x="0" y="0" class="st9 st19">Shared </tspan><tspan x="0.6" y="9.17" class="st9 st19">Atrous </tspan><tspan x="-2.08" y="18.34" class="st9 st19">ResBlock</tspan></text>
<text transform="matrix(1 0 0 1 266.7188 172.4451)"><tspan x="0" y="0" class="st9 st19">Shared </tspan><tspan x="0.6" y="9.17" class="st9 st19">Atrous </tspan><tspan x="-2.08" y="18.34" class="st9 st19">ResBlock</tspan></text>
<text transform="matrix(1 0 0 1 264.7188 89.4451)"><tspan x="0" y="0" class="st9 st19">Shared </tspan><tspan x="0.6" y="9.17" class="st9 st19">Atrous </tspan><tspan x="-2.08" y="18.34" class="st9 st19">ResBlock</tspan></text>
<text transform="matrix(1 0 0 1 307.7188 130.4451)"><tspan x="0" y="0" class="st9 st19">Shared </tspan><tspan x="0.6" y="9.17" class="st9 st19">Atrous </tspan><tspan x="-2.08" y="18.34" class="st9 st19">ResBlock</tspan></text>
<text transform="matrix(1 0 0 1 219.7187 46.4451)"><tspan x="0" y="0" class="st9 st19">Shared </tspan><tspan x="0.6" y="9.17" class="st9 st19">Atrous </tspan><tspan x="-2.08" y="18.34" class="st9 st19">ResBlock</tspan></text>
<text transform="matrix(1 0 0 1 305.7188 47.4451)"><tspan x="0" y="0" class="st9 st19">Shared </tspan><tspan x="0.6" y="9.17" class="st9 st19">Atrous </tspan><tspan x="-2.08" y="18.34" class="st9 st19">ResBlock</tspan></text>
<text transform="matrix(1 0 0 1 347.7188 89.4451)"><tspan x="0" y="0" class="st9 st19">Shared </tspan><tspan x="0.6" y="9.17" class="st9 st19">Atrous </tspan><tspan x="-2.08" y="18.34" class="st9 st19">ResBlock</tspan></text>
<text transform="matrix(1 0 0 1 389.7188 46.4451)"><tspan x="0" y="0" class="st9 st19">Shared </tspan><tspan x="0.6" y="9.17" class="st9 st19">Atrous </tspan><tspan x="-2.08" y="18.34" class="st9 st19">ResBlock</tspan></text>
<path class="st1" d="M569.46,273H402.9c-4.82,0-8.72-3.91-8.72-8.72V95.72c0-4.82,3.91-8.72,8.72-8.72h166.55
	c4.82,0,8.72,3.91,8.72,8.72v168.55C578.18,269.09,574.28,273,569.46,273z"/>
<rect x="425.68" y="93.8" class="st8" width="122" height="9.19"/>
<text transform="matrix(1 0 0 1 425.6807 100.9026)" class="st9 st20">Shared Atrous Residual Block</text>
<rect x="398.96" y="140.33" class="st11" width="91.22" height="15"/>
<rect x="403.72" y="143.8" class="st8" width="83.96" height="9.19"/>
<text transform="matrix(1 0 0 1 403.7246 150.9027)" class="st9 st20">Shared Atrous Conv</text>
<rect x="414.18" y="163.99" class="st11" width="60" height="15"/>
<rect x="419.3" y="167.46" class="st8" width="51.39" height="9.19"/>
<text transform="matrix(1 0 0 1 419.2954 174.563)" class="st9 st20">Batch Norm</text>
<rect x="426.18" y="187.99" class="st11" width="35" height="15"/>
<rect x="432.68" y="191.46" class="st8" width="22" height="9.19"/>
<text transform="matrix(1 0 0 1 432.6807 198.5628)" class="st9 st20">ReLU</text>
<rect x="398.53" y="212.16" class="st11" width="91.22" height="15"/>
<rect x="403.3" y="215.63" class="st8" width="83.96" height="9.19"/>
<text transform="matrix(1 0 0 1 403.2954 222.7325)" class="st9 st20">Shared Atrous Conv</text>
<rect x="414.18" y="235.82" class="st11" width="60" height="15"/>
<rect x="418.87" y="239.29" class="st8" width="51.39" height="9.19"/>
<text transform="matrix(1 0 0 1 418.8661 246.3928)" class="st9 st20">Batch Norm</text>
<g>
	<line x1="443.18" y1="155.5" x2="443.18" y2="164.5"/>
	<g>
		<line class="st11" x1="443.18" y1="155.5" x2="443.18" y2="160.94"/>
		<g>
			<path d="M443.18,160.54c1.04-1.04,3.11-1.54,4.54-1.58c-1.92,1.43-3.6,3.29-4.54,5.55c-0.9-2.25-2.68-4.03-4.54-5.55
				C440.17,159.08,442.03,159.45,443.18,160.54z"/>
		</g>
	</g>
</g>
<g>
	<line x1="443.18" y1="179.5" x2="443.18" y2="188.5"/>
	<g>
		<line class="st11" x1="443.18" y1="179.5" x2="443.18" y2="184.94"/>
		<g>
			<path d="M443.18,184.54c1.04-1.04,3.11-1.54,4.54-1.58c-1.92,1.43-3.6,3.29-4.54,5.55c-0.9-2.25-2.68-4.03-4.54-5.55
				C440.17,183.08,442.03,183.45,443.18,184.54z"/>
		</g>
	</g>
</g>
<g>
	<line x1="443.18" y1="203.5" x2="443.18" y2="212.5"/>
	<g>
		<line class="st11" x1="443.18" y1="203.5" x2="443.18" y2="208.94"/>
		<g>
			<path d="M443.18,208.54c1.04-1.04,3.11-1.54,4.54-1.58c-1.92,1.43-3.6,3.29-4.54,5.55c-0.9-2.25-2.68-4.03-4.54-5.55
				C440.17,207.08,442.03,207.45,443.18,208.54z"/>
		</g>
	</g>
</g>
<g>
	<line x1="443.18" y1="227.5" x2="443.18" y2="236.5"/>
	<g>
		<line class="st11" x1="443.18" y1="227.5" x2="443.18" y2="232.94"/>
		<g>
			<path d="M443.18,232.54c1.04-1.04,3.11-1.54,4.54-1.58c-1.92,1.43-3.6,3.29-4.54,5.55c-0.9-2.25-2.68-4.03-4.54-5.55
				C440.17,231.08,442.03,231.45,443.18,232.54z"/>
		</g>
	</g>
</g>
<g>
	<g>
		<polyline class="st11" points="485.68,121 485.68,129 443.18,129 443.18,136.77 		"/>
		<g>
			<path d="M443.18,136.37c1.04-1.04,3.11-1.54,4.54-1.58c-1.92,1.43-3.6,3.29-4.54,5.55c-0.9-2.25-2.68-4.03-4.54-5.55
				C440.17,134.91,442.03,135.29,443.18,136.37z"/>
		</g>
	</g>
</g>
<rect x="517.18" y="164" class="st11" width="52" height="16"/>
<rect x="521.68" y="168.46" class="st8" width="44" height="9.19"/>
<text transform="matrix(1 0 0 1 521.6806 175.563)" class="st9 st20">1 x 1 Conv</text>
<rect x="513.18" y="187.99" class="st11" width="61" height="15"/>
<rect x="520.39" y="191.46" class="st8" width="51.39" height="9.19"/>
<text transform="matrix(1 0 0 1 520.3887 198.5625)" class="st9 st20">Batch Norm</text>
<g>
	<line x1="544.18" y1="179.5" x2="544.18" y2="188.5"/>
	<g>
		<line class="st11" x1="544.18" y1="179.5" x2="544.18" y2="184.94"/>
		<g>
			<path d="M544.18,184.54c1.04-1.04,3.11-1.54,4.54-1.58c-1.92,1.43-3.6,3.29-4.54,5.55c-0.9-2.25-2.68-4.03-4.54-5.55
				C541.17,183.08,543.03,183.45,544.18,184.54z"/>
		</g>
	</g>
</g>
<rect x="473.55" y="109.55" class="st8" width="25.13" height="9.19"/>
<text transform="matrix(1 0 0 1 473.5512 116.6481)" class="st9 st20">input</text>
<g>
	<line x1="544.18" y1="203.5" x2="544.18" y2="212.5"/>
	<g>
		<line class="st11" x1="544.18" y1="203.5" x2="544.18" y2="208.94"/>
		<g>
			<path d="M544.18,208.54c1.04-1.04,3.11-1.54,4.54-1.58c-1.92,1.43-3.6,3.29-4.54,5.55c-0.9-2.25-2.68-4.03-4.54-5.55
				C541.17,207.08,543.03,207.45,544.18,208.54z"/>
		</g>
	</g>
</g>
<rect x="529.39" y="260.55" class="st8" width="30.29" height="9.19"/>
<text transform="matrix(1 0 0 1 529.3909 267.648)" class="st9 st20">output</text>
<g>
	<g>
		<polyline class="st11" points="485.68,120.99 485.68,128.99 543.68,128.99 543.68,140.33 543.68,160.44 		"/>
		<g>
			<path d="M543.68,160.04c1.04-1.04,3.11-1.54,4.54-1.58c-1.92,1.43-3.6,3.29-4.54,5.55c-0.9-2.25-2.68-4.03-4.54-5.55
				C540.67,158.58,542.53,158.95,543.68,160.04z"/>
		</g>
	</g>
</g>
<g>
	<g>
		<line class="st11" x1="421.18" y1="54" x2="436.48" y2="54"/>
		<g>
			<path d="M436.07,54c-1.04-1.04-1.54-3.11-1.58-4.54c1.43,1.92,3.29,3.6,5.55,4.54c-2.25,0.9-4.03,2.68-5.55,4.54
				C434.61,57.01,434.99,55.15,436.07,54z"/>
		</g>
	</g>
</g>
<circle class="st11" cx="460.68" cy="54.5" r="20.5"/>
<rect x="448.38" y="43.59" class="st8" width="25.02" height="23.49"/>
<g>
	<g>
		<line class="st11" x1="481.34" y1="54.37" x2="496.63" y2="54.37"/>
		<g>
			<path d="M496.23,54.37c-1.04-1.04-1.54-3.11-1.58-4.54c1.43,1.92,3.29,3.6,5.55,4.54c-2.25,0.9-4.03,2.68-5.55,4.54
				C494.77,57.38,495.14,55.52,496.23,54.37z"/>
		</g>
	</g>
</g>
<rect x="449.76" y="44.78" class="st8" width="21.92" height="25.72"/>
<text transform="matrix(1 0 0 1 451.1563 51.8819)"><tspan x="0" y="0" class="st9 st20">1 x 1 </tspan><tspan x="-1.26" y="12" class="st9 st20">Conv</tspan></text>
<rect x="525.18" y="237.38" class="st11" width="37" height="15"/>
<rect x="533.3" y="240.85" class="st8" width="22" height="9.19"/>
<text transform="matrix(1 0 0 1 533.2978 247.9455)" class="st9 st20">ReLU</text>
<rect x="525.18" y="213.04" class="st11" width="37" height="15"/>
<rect x="518.01" y="216.51" class="st8" width="51.39" height="9.19"/>
<text transform="matrix(1 0 0 1 534.3085 223.6055)" class="st9 st20">Sum</text>
<g>
	<polyline class="st21" points="474.18,243.32 506.18,243.32 506.18,221 525.18,221 	"/>
	<g>
		<polyline class="st11" points="474.18,243.32 506.18,243.32 506.18,221 521.62,221 		"/>
		<g>
			<path d="M521.22,221c-1.04-1.04-1.54-3.11-1.58-4.54c1.43,1.92,3.29,3.6,5.55,4.54c-2.25,0.9-4.03,2.68-5.55,4.54
				C519.76,224.01,520.13,222.15,521.22,221z"/>
		</g>
	</g>
</g>
<g>
	<line x1="544.18" y1="228.5" x2="544.18" y2="237.5"/>
	<g>
		<line class="st11" x1="544.18" y1="228.5" x2="544.18" y2="233.94"/>
		<g>
			<path d="M544.18,233.54c1.04-1.04,3.11-1.54,4.54-1.58c-1.92,1.43-3.6,3.29-4.54,5.55c-0.9-2.25-2.68-4.03-4.54-5.55
				C541.17,232.08,543.03,232.45,544.18,233.54z"/>
		</g>
	</g>
</g>
<g>
	<line x1="544.18" y1="252.5" x2="544.18" y2="261.5"/>
	<g>
		<line class="st11" x1="544.18" y1="252.5" x2="544.18" y2="257.94"/>
		<g>
			<path d="M544.18,257.54c1.04-1.04,3.11-1.54,4.54-1.58c-1.92,1.43-3.6,3.29-4.54,5.55c-0.9-2.25-2.68-4.03-4.54-5.55
				C541.17,256.08,543.03,256.45,544.18,257.54z"/>
		</g>
	</g>
</g>
<g>
	<g>
		<polyline class="st11" points="149.18,34 149.18,11 461.18,11 461.18,30.44 		"/>
		<g>
			<path d="M461.18,30.04c1.04-1.04,3.11-1.54,4.54-1.58c-1.92,1.43-3.6,3.29-4.54,5.55c-0.9-2.25-2.68-4.03-4.54-5.55
				C458.17,28.58,460.03,28.95,461.18,30.04z"/>
		</g>
	</g>
</g>
<g>
	<g>
		<polyline class="st11" points="232.18,33 232.18,16 440.18,16 451.03,32.52 		"/>
		<g>
			<path d="M450.81,32.19c0.3-1.45,1.75-3,2.93-3.82c-0.82,2.25-1.2,4.73-0.76,7.13c-1.99-1.39-4.45-1.9-6.84-2.14
				C447.49,32.62,449.25,31.91,450.81,32.19z"/>
		</g>
	</g>
</g>
<path class="st11" d="M317.18,33"/>
<g>
	<g>
		<polyline class="st11" points="317.18,33 317.18,21 421.18,21 440.66,40.48 		"/>
		<g>
			<path d="M440.38,40.2c0-1.48,1.11-3.29,2.09-4.33c-0.35,2.37-0.22,4.88,0.71,7.14c-2.23-0.96-4.75-0.96-7.14-0.71
				C437.22,41.29,438.8,40.24,440.38,40.2z"/>
		</g>
	</g>
</g>
<path class="st1" d="M312.18,26"/>
<path class="st1" d="M303.18,28"/>
<g class="st12">
	<g>
		<path class="st13" d="M245.68,38.88c13.05-4.11,34.37-9.18,60.95-8.28c32.02,1.09,56.51,10.34,70.35,16.85"/>
		<g>
			<path d="M376.6,47.3c-0.5-1.39-0.06-3.47,0.51-4.79c0.47,2.35,1.43,4.67,3.07,6.48c-2.42-0.15-4.79,0.7-6.96,1.73
				C373.99,49.4,375.13,47.88,376.6,47.3z"/>
		</g>
	</g>
</g>
</svg>
